<svg xmlns="http://www.w3.org/2000/svg" version="1.1" xmlns:xlink="http://www.w3.org/1999/xlink" xmlns:svgjs="http://svgjs.com/svgjs" width="100%" height="100%"><svg width="100%" height="100%" viewBox="0 0 2170 2237" version="1.1" xmlns="http://www.w3.org/2000/svg" xmlnsxlink="http://www.w3.org/1999/xlink" xmlspace="preserve" xmlnsserif="http://www.serif.com/" style="fill-rule:evenodd;clip-rule:evenodd;stroke-linejoin:round;stroke-miterlimit:2;">
    <g>
        <path id="SvgjsPath1001" d="M1074.89,2236.77C1057.93,2186.49 651.72,1635.96 452.172,1435.83C171.459,1154.29 15.189,1024.68 0.72,678.788C-16.305,271.782 268.28,-23.664 666.346,1.497C821.36,11.295 966.853,61.572 1080.18,152.483C1193.52,61.572 1334.45,8.904 1489.6,1.497C1911.33,-18.639 2214.03,271.219 2164.23,678.936C2121.12,1031.92 1995,1166.32 1731.75,1427.68C1512.64,1645.21 1087.1,2219.55 1074.89,2236.77Z" style="fill:white;"></path>
        <g>
            <path d="M497.71,120.73C556.84,107.106 621.436,101.999 690.61,106.254C789.77,112.355 891.844,159.616 979.614,215.192L979.614,596.121L663.94,596.121C685.745,382.548 607.327,237.921 497.71,120.73Z" style="fill:rgb(22,131,197);"></path>
            <path d="M1503.92,105.955C1506.46,105.891 1509,105.828 1511.54,105.764C1524.3,105.445 1523.49,105.371 1535.77,105.416C1554.84,105.487 1573.89,106.093 1592.91,107.572C1646.33,111.725 1700.39,121.995 1750.6,141.056C1759.78,144.54 1788.8,156.569 1802.27,163.538C1794.24,166.036 1775.2,171.499 1768.19,173.767C1749.73,179.736 1732.45,186.431 1714.64,194.114C1656.69,219.103 1605.12,257.876 1563.24,303.192C1514.88,359.296 1479.5,421.962 1452.87,489.795C1441.42,515.432 1421.55,595.594 1420.35,596.121C1336.6,596.335 1187.94,596.121 1187.94,596.121L1187.94,215.54C1187.94,215.54 1232.9,188.696 1256.22,176.827C1306.78,151.086 1360.66,128.596 1416.42,116.723C1437.67,112.199 1458.99,108.784 1480.68,107.185C1488.41,106.615 1496.17,106.285 1503.92,105.955Z" style="fill:rgb(254,204,49);"></path>
            <path d="M1786.13,784.991C1749.56,759.357 1699.12,764.79 1657.22,764.99C1641.07,765.067 1632.43,765.175 1616.88,762.725C1612.74,762.072 1604.61,759.913 1604.61,759.913L1604.61,596.121L1579.71,596.121C1579.71,596.121 1641.46,550.925 1668.45,524.012C1729.77,462.859 1781.63,393.341 1797.11,327.583C1803.43,300.727 1810.52,274.63 1813.27,247.177C1815.84,221.589 1814.57,170.038 1814.57,170.038C1814.57,170.038 1825,175.563 1829.95,178.746C1859.04,197.427 1886.37,216.319 1911.08,240.361C1987.42,314.643 2031.76,412.379 2050.77,516.534C2076.99,660.155 2061.14,817.945 1998.8,950.075C1951.61,1050.1 1796.46,1210.79 1796.46,1210.79C1796.46,1210.79 1800.12,942.7 1801.15,869.056C1798.15,846.137 1806.7,804.388 1786.13,784.991Z" style="fill:rgb(254,189,22);"></path>
            <path d="M1814.57,170.038C1814.57,170.038 1814.84,186.085 1814.91,194.11C1815.06,210.678 1814.55,227.293 1813.44,243.826C1809.87,297.056 1795.99,349.401 1770.46,396.381C1737.85,456.414 1690.2,507.757 1637.72,551.084C1625.21,561.419 1579.71,596.121 1579.71,596.121L1420.36,596.121C1420.36,596.121 1427.53,567.939 1430.28,558.274C1441.29,519.541 1454.39,481.426 1470.89,444.66C1514.68,347.034 1581.91,266.207 1674.99,212.727C1703.89,196.12 1735.3,184.662 1766.73,173.954C1776.86,170.502 1802.56,163.691 1802.56,163.691L1814.57,170.038Z" style="fill:rgb(253,211,46);"></path>
            <path d="M1373.41,804.728L1373.36,804.455L1397.6,804.455C1406.66,944.247 1472.44,1046.54 1558.5,1123.9L1588.9,1149.59C1640.72,1190.81 1697.85,1224.27 1753.38,1252.36C1734.59,1270.05 1643.65,1354.58 1604.64,1393.32L1568.77,1429.82L1568.79,1429.88L1563.83,1434.9C1541.48,1428 1532.14,1420.5 1511.25,1416.57L1491.69,1413.6C1472.66,1411.67 1451.5,1412.76 1427.65,1414.18L1399.91,1415.29C1381.27,1314.39 1344.34,1230.91 1291.96,1161.17C1261.63,1120.85 1226.79,1085.26 1187.95,1054.47L1187.95,804.455L1373.35,804.455L1373.41,804.728Z" style="fill:rgb(204,65,47);"></path>
            <path d="M1399.44,825.573C1398.68,819.258 1397.84,813.296 1397.61,804.615L1604.73,807.805L1604.86,759.921C1604.86,759.921 1653.21,761.94 1673.78,763.111C1734.75,764.315 1763.72,766.658 1783.52,781.656C1786.07,782.568 1804.64,800.478 1805.05,837.03C1805.96,917.999 1800.41,998.929 1800.18,1079.9C1800.05,1127 1796.45,1210.6 1796.45,1210.6L1753.22,1252.43C1704.57,1253.55 1416.04,1083.06 1399.44,825.573Z" style="fill:rgb(243,125,35);"></path>
            <path d="M1400.5,1415.31C1398.96,1416.39 1362.98,1418.62 1360.92,1418.51C1321.13,1416.37 1288.69,1402.17 1265.32,1400.28C1252.03,1399.21 1230.12,1401.31 1222.54,1403.9C1211.36,1407.72 1187.95,1409.55 1187.95,1409.55L1188,1054.14C1189.67,1052.85 1224.06,1085.03 1240.97,1100.62C1255.53,1114.05 1275.3,1135.11 1285.52,1148.53C1331.6,1209.05 1347.53,1243.67 1376.7,1313.74C1381.45,1325.16 1402.09,1415.77 1400.5,1415.31Z" style="fill:rgb(199,39,44);"></path>
            <path d="M1529.3,1471.05C1517.71,1483.56 1506.12,1496.07 1494.54,1508.58L1482.82,1521.72L1459.84,1547.2L1440.34,1569.34L1425.19,1586.33L1425.34,1586.38L1425.31,1586.41L1416.41,1583.7L1408.99,1582.09C1412.21,1522.16 1408.84,1466.62 1399.92,1415.29L1427.8,1413.44C1446.88,1412.3 1466.41,1411.53 1483.2,1412.25L1495.23,1413.09L1505.93,1414.59C1526.82,1418.52 1543.38,1427.09 1563.83,1434.9L1529.3,1471.05Z" style="fill:rgb(219,35,42);"></path>
            <path d="M1265.46,1399.76L1277.6,1401.33L1279.43,1401.66L1299.5,1405.96L1310.08,1408.47L1328.12,1413.02L1329.48,1413.32L1330.99,1413.69L1332.18,1413.91C1338.35,1415.37 1344.17,1416.49 1349.49,1417.06C1352.48,1417.38 1356.3,1417.48 1360.79,1417.38L1361.87,1417.42L1365.33,1417.27L1370.19,1417.15L1374.11,1416.91L1378.81,1416.71L1399.92,1415.29C1408.84,1466.62 1412.2,1522.15 1408.98,1582.08C1404.06,1581.04 1399.23,1580.24 1394.4,1579.77L1392.72,1579.51L1391.46,1579.45C1386.51,1578.96 1381.55,1578.74 1376.49,1578.79L1375.68,1578.77L1373.41,1578.89L1367.64,1579.08L1364.76,1579.37L1363,1579.46L1360.53,1579.79L1356.67,1580.17L1352.24,1580.87L1349.59,1581.22L1347.61,1581.6L1345.1,1582L1342.46,1582.61L1335.15,1584.03L1319.38,1587.92L1310.04,1589.85L1300.53,1590.74L1291.4,1590.66L1288.34,1590.41L1282.61,1589.85L1267.32,1586.98L1264.41,1586.25L1255.35,1583.51L1243.3,1579.45L1235.13,1576.27L1222.86,1571.05L1214.6,1567.31L1201.42,1560.96L1193.63,1557.12L1187.95,1554.22L1187.95,1409.55L1213.25,1404.54L1222.63,1402.68L1233.7,1401.09L1238.93,1400.34L1252.93,1399.3L1265.46,1399.76Z" style="fill:rgb(176,42,46);"></path>
            <path d="M1187.96,1554.2C1187.96,1554.2 1257.35,1590.75 1298.02,1590.48C1309.55,1590.4 1322.88,1586.84 1335.01,1583.95C1350.22,1580.34 1359.52,1579.03 1378.31,1578.66C1382.76,1578.58 1400.44,1578.22 1425.14,1586.16C1374.62,1648.15 1321.87,1708.29 1270.83,1769.86C1250.63,1794.23 1188.11,1885.33 1188.11,1885.33L1187.96,1554.2Z" style="fill:rgb(137,41,30);"></path>
            <path d="M497.71,120.73C497.71,120.73 512.117,136.078 519.263,143.805C526.28,151.392 538.693,162.564 545.34,170.476C568.145,197.622 582.339,224.406 599.995,255.14C662.414,363.793 678.403,479.303 663.94,596.121C644.694,596.913 580.894,595.621 562.947,596.121C562.58,606.198 561.758,630.651 562.947,647.784C562.918,648.284 550.036,651.448 548.726,651.745C534.638,654.937 507.998,664.48 492.024,671.545C464.66,683.647 424.658,706.127 391.077,734.366C351.84,767.36 313.03,802.319 281.029,842.403C256.089,873.643 238.855,899.171 214.878,931.155C206.229,942.693 198.912,954.684 187.438,978.055C179.392,964.897 133.08,841.704 129.856,829.21C85.892,658.834 101.104,456.969 205.112,310.516C256.252,238.505 327.515,182.994 408.897,149.056C437.577,137.096 497.71,120.73 497.71,120.73Z" style="fill:rgb(81,178,222);"></path>
            <path d="M238.12,1056.91C219.179,1031.23 202.342,1005.17 187.575,978.113C336.893,960.393 505.201,916.525 593.903,804.459L979.614,804.459L979.614,939.666L916.211,927.626C722.356,897.696 505.185,1215.16 449.508,1282.19C375.34,1212.47 313.169,1151.18 263.139,1089.32L238.12,1056.91Z" style="fill:rgb(78,162,76);"></path>
            <path d="M480.979,1241.25C484.258,1237.09 487.538,1232.92 490.82,1228.76C498.035,1219.6 505.198,1210.4 512.47,1201.3C532.934,1175.66 553.99,1150.42 575.68,1125.81C641.698,1050.9 720.427,968.656 818.854,937.349C857.569,925.035 902.853,921.289 943.674,930.358C946.741,931.039 981.946,938.139 981.805,941.023C981.429,948.722 982.156,1141.72 982.227,1149.53C983.81,1323.18 982.497,1491.15 982.327,1499.3C966.903,1499.57 952.477,1506.64 942.956,1512.9C899.44,1541.52 858.362,1572.88 811.824,1596.47C808.791,1598.01 772.191,1616.16 769.701,1613.75C700.509,1546.77 641.394,1470.04 574.496,1400.77C534.602,1359.46 449.508,1282.19 449.508,1282.19C452.711,1280.07 472.81,1246.46 480.979,1241.25Z" style="fill:rgb(17,140,72);"></path>
            <path d="M982.004,1499.38C981.869,1495.89 981.711,1498.24 981.651,1505.1C981.199,1556.49 982.642,1862.54 983.167,1885.88C983.167,1885.88 949.472,1832.18 934.767,1814.45C878.996,1747.22 769.701,1613.75 769.701,1613.75C769.701,1613.75 784.823,1608.44 792.176,1605.27C807.117,1598.83 819.14,1592.5 833.231,1583.8C870.958,1560.48 900.415,1538.89 932.188,1519.4C941.757,1513.54 950.46,1506.31 960.713,1501.76C965.261,1499.75 982.004,1499.38 982.004,1499.38Z" style="fill:rgb(7,125,71);"></path>
            <path d="M562.947,647.875C561.749,699.925 563.102,753.511 562.947,804.455C569.094,805.002 594.209,804.92 593.903,804.455C588.298,812.972 581.706,822.38 575.813,828.475C556.879,848.059 534.69,862.259 512.194,877.476C434.967,929.714 351.976,952.038 265.489,966.416C245.934,969.667 202.766,979.402 187.276,978.13C201.244,949.065 225.281,912.293 240.706,891.668C248.151,881.713 292.023,827.305 300.731,818.435C369.011,748.889 389.064,731.823 440.956,698.444C463.298,684.072 487.241,671.981 512.368,663.078C521.589,659.811 530.61,656.499 540.014,653.88C547.626,651.761 562.947,647.875 562.947,647.875Z" style="fill:rgb(24,172,179);"></path>
        </g>
    </g>
    <g id="SvgjsG1000">
        <rect x="980.632" y="184.813" width="208.333" height="1845.21" style="fill:white;"></rect>
        <rect x="563.965" y="596.121" width="1041.67" height="208.333" style="fill:white;"></rect>
    </g>
</svg><style>@media (prefers-color-scheme: light) { :root { filter: none; } }
@media (prefers-color-scheme: dark) { :root { filter: none; } }
</style></svg>